<svg width="14" height="14" viewBox="0 0 14 14" fill="currentColor"
  xmlns="http://www.w3.org/2000/svg">
  <path d="M14 2.29004C14 2.59082 13.943 2.88249 13.8291 3.16504C13.7152 3.44759 13.5488 3.69824 13.3301 3.91699L4.32717 12.9199L3.05176e-05 14L1.08011 9.67285L10.083 0.669922C10.3018 0.451172 10.5524 0.284831 10.835 0.170898C11.1175 0.0569661 11.4092 0 11.71 0C12.0244 0 12.3206 0.0592448 12.5986 0.177734C12.8766 0.296224 13.1182 0.460286 13.3232 0.669922C13.5283 0.879557 13.6924 1.12337 13.8154 1.40137C13.9385 1.67936 14 1.97559 14 2.29004ZM2.22854 9.76172C2.71161 9.92122 3.12633 10.1742 3.47268 10.5205C3.81903 10.8669 4.07424 11.2839 4.2383 11.7715L11.6279 4.375L9.62501 2.37207L2.22854 9.76172ZM1.20315 12.7969L3.45217 12.2363C3.4066 12.0267 3.33368 11.8285 3.23342 11.6416C3.13316 11.4548 3.00784 11.2884 2.85745 11.1426C2.70706 10.9967 2.54071 10.8737 2.35842 10.7734C2.17613 10.6732 1.97789 10.598 1.7637 10.5479L1.20315 12.7969ZM12.25 3.75293C12.3639 3.639 12.4733 3.5319 12.5781 3.43164C12.6829 3.33138 12.7764 3.22656 12.8584 3.11719C12.9404 3.00781 13.0042 2.88704 13.0498 2.75488C13.0954 2.62272 13.1204 2.47005 13.125 2.29688C13.125 2.10091 13.0885 1.91862 13.0156 1.75C12.9427 1.58138 12.8402 1.43099 12.708 1.29883C12.5758 1.16667 12.4255 1.06413 12.2568 0.991211C12.0882 0.918294 11.9037 0.879557 11.7031 0.875C11.53 0.875 11.3796 0.897786 11.252 0.943359C11.1244 0.988932 11.0036 1.05501 10.8897 1.1416C10.7757 1.22819 10.6686 1.32161 10.5684 1.42188C10.4681 1.52214 10.361 1.63151 10.2471 1.75L12.25 3.75293Z" fill="#929292"/>
</svg>
