<svg width="7" height="9" viewBox="0 0 7 9" fill="none" xmlns="http://www.w3.org/2000/svg">
<path d="M7 1.6878H6.46154V8.15628C6.46154 8.27347 6.44051 8.38333 6.39844 8.48586C6.35637 8.5884 6.29888 8.67775 6.22596 8.75392C6.15305 8.83008 6.06751 8.89014 5.96935 8.93408C5.87119 8.97803 5.76603 9 5.65385 9H1.34615C1.23397 9 1.12881 8.97803 1.03065 8.93408C0.932492 8.89014 0.846955 8.83008 0.774038 8.75392C0.701122 8.67775 0.64363 8.5884 0.601563 8.48586C0.559495 8.38333 0.538462 8.27347 0.538462 8.15628V1.6878H0V1.12532H2.15385V0.562843C2.15385 0.483745 2.16787 0.410506 2.19591 0.343126C2.22396 0.275746 2.26182 0.217154 2.3095 0.167352C2.35717 0.117549 2.41466 0.076535 2.48197 0.0443097C2.54928 0.0120845 2.61939 -0.00256337 2.69231 0.000366196H4.30769C4.38341 0.000366196 4.45353 0.015014 4.51803 0.0443097C4.58253 0.0736054 4.63862 0.113155 4.6863 0.162957C4.73397 0.21276 4.77324 0.272816 4.80409 0.343126C4.83494 0.413435 4.84896 0.486675 4.84615 0.562843V1.12532H7V1.6878ZM2.69231 1.12532H4.30769V0.562843H2.69231V1.12532ZM5.92308 1.6878H1.07692V8.15628C1.07692 8.23245 1.10357 8.29837 1.15685 8.35403C1.21014 8.40969 1.27324 8.43752 1.34615 8.43752H5.65385C5.72676 8.43752 5.78986 8.40969 5.84315 8.35403C5.89643 8.29837 5.92308 8.23245 5.92308 8.15628V1.6878ZM2.69231 7.31257H2.15385V2.81275H2.69231V7.31257ZM3.76923 7.31257H3.23077V2.81275H3.76923V7.31257ZM4.84615 7.31257H4.30769V2.81275H4.84615V7.31257Z" fill="#929292"/>
</svg>
